<?xml version="1.0" encoding="UTF-8"?>
<svg width="178px" height="200px" viewBox="0 0 178 200" version="1.1" xmlns="http://www.w3.org/2000/svg" xmlns:xlink="http://www.w3.org/1999/xlink">
    <!-- Generator: Sketch 46.2 (44496) - http://www.bohemiancoding.com/sketch -->
    <title>Artboard</title>
    <desc>Created with Sketch.</desc>
    <defs></defs>
    <g id="Page-1" stroke="none" stroke-width="1" fill="none" fill-rule="evenodd">
        <g id="Artboard">
            <g id="Group-6" transform="translate(20.000000, 14.000000)">
                <path d="M20.3643223,26 C14.6824936,31.2032588 -5.9347419,75.0583764 4.13942256,97.2042345 C14.213587,119.351014 -8.98721373,132.107241 4.13942256,147.374371 C4.13942256,147.374371 19.4100242,158.930414 41.2709611,151.519293 C63.1309822,144.108172 73,71.3482106 73,71.3482106 L20.3643223,26" id="Fill-128" fill="#89C9C6"></path>
                <path d="M116.222547,19 C120.851168,21.2799438 143.934742,66.3049323 133.860577,88.3817304 C123.786413,110.459447 146.987214,123.175896 133.860577,138.395416 C133.860577,138.395416 118.58906,149.914504 96.7290389,142.527412 C74.8690178,135.139403 65,62.6063363 65,62.6063363 L116.222547,19" id="Fill-129" fill="#89C9C6"></path>
                <path d="M91.3383406,94.8884171 L69.0091844,93 L46.6809456,94.8884171 C46.6809456,94.8884171 6.62774634,114.974392 10.2290752,125.965736 C13.830404,136.958001 26.9759424,130.775716 28.9569026,129.744413 C30.9369453,128.714954 30.5772712,169.763373 36.1595603,170.966098 C41.7418493,172.167902 49.3041811,172.510748 49.8455273,170.966098 C50.3850385,169.419605 53.2661016,158.770186 53.6266932,158.255917 C53.9863673,157.740727 67.4915798,158.255917 67.4915798,158.255917 C67.4915798,158.255917 80.9967923,157.740727 81.3564664,158.255917 C81.7170581,158.770186 84.5990387,169.419605 85.1385498,170.966098 C85.678061,172.510748 93.2422279,172.167902 98.8245169,170.966098 C104.406806,169.763373 104.046214,128.714954 106.026257,129.744413 C108.007217,130.775716 121.152756,136.958001 124.753167,125.965736 C128.355413,114.974392 91.3383406,94.8884171 91.3383406,94.8884171" id="Fill-130" fill="#FCE2CD"></path>
                <path d="M46.0971731,94.9204244 C46.0971731,94.9204244 23.0044409,106.717489 20.3163786,111.14952 C18.0056365,114.95665 29.1104186,129.47414 29.1104186,129.47414 L31.3523066,149 L103.851037,148.744359 L106.224207,129.47414 C106.224207,129.47414 115.036608,116.57846 114.999886,110.330368 C114.999886,110.330368 94.3069467,93.6990274 91.5527845,94.0041476 C88.7986223,94.3092677 46.0971731,94.9204244 46.0971731,94.9204244" id="Fill-131" fill="#EB9394"></path>
                <path d="M128,53.3637216 C128,82.8369409 102.023433,99 69.990792,99 C37.9581514,99 12,82.8369409 12,53.3637216 C12,23.8923392 37.9673594,0 70,0 C102.032641,0 128,23.8923392 128,53.3637216" id="Fill-135" fill="#FCE2CD"></path>
                <path d="M12,49.6759765 C12,49.6759765 14.0136288,3.08839578 70.30521,0.120386896 C128.168561,-2.92999041 126.998231,53 126.998231,53 L96.1737261,25.2720428 L72.8580725,14.9521945 L12,49.6759765" id="Fill-136" fill="#996994"></path>
                <path d="M69.4050696,26.3210773 C74.6315222,59.6480589 119.397304,34.0437408 115.726398,70.7076306 C112.055492,107.37152 107.932147,101.060133 107.932147,101.060133 C107.932147,101.060133 135.820938,98.0444685 127.42374,48.074131 C119.944269,3.56127669 71.1414082,14.0845269 71.1414082,14.0845269 C71.1414082,14.0845269 2.85062471,7.95892997 11.8103887,67.1986603 C13.2429598,76.6739786 17.027664,87.6603324 23.2030457,100.688552 C24.3382734,103.084609 27.9550337,101.939664 27.4998413,99.3294436 C25.4496403,87.5605729 24.6796677,72.3156799 29.8593162,58.5571114 C35.1555159,44.489197 57.997729,58.1141428 69.4050696,26.3210773" id="Fill-137" fill="#89C9C6"></path>
                <path d="M94,72.5806452 C94,77.3189677 92.2088889,78 90,78 C87.7902222,78 86,77.3189677 86,72.5806452 C86,67.8414194 87.7902222,64 90,64 C92.2088889,64 94,67.8414194 94,72.5806452" id="Fill-138" fill="#5C3230"></path>
                <path d="M52,72.5806452 C52,77.3189677 50.2088889,78 48,78 C45.7902222,78 44,77.3189677 44,72.5806452 C44,67.8414194 45.7902222,64 48,64 C50.2088889,64 52,67.8414194 52,72.5806452" id="Fill-139" fill="#5C3230"></path>
                <path d="M102.499559,84 C99.4620684,84 97,83.5516502 97,83.0004286 C97,82.4474925 99.4620684,82 102.499559,82 C105.53705,82 108,82.4474925 108,83.0004286 C108,83.5516502 105.53705,84 102.499559,84" id="Fill-140" fill="#F1B6B2"></path>
                <path d="M39.5,85 C36.4622657,85 34,84.5516502 34,84.0004286 C34,83.4483498 36.4622657,83 39.5,83 C42.5377343,83 45,83.4483498 45,84.0004286 C45,84.5516502 42.5377343,85 39.5,85" id="Fill-141" fill="#F1B6B2"></path>
                <path d="M72,90 C69.2383073,90 67,87.8171002 67,85.1247925 C67,83.2924737 68.0374907,83 69.5714551,83 C70.2906459,83 71.1184113,83.0639181 72,83.0639181 C72.8806607,83.0639181 73.7093541,83 74.4276169,83 C75.9615813,83 77,83.2924737 77,85.1247925 C77,87.8171002 74.7616927,90 72,90" id="Fill-142" fill="#F4C4B6"></path>
                <path d="M82.830181,162.177067 L102.543275,161.610875 C102.543275,161.610875 103.843039,150.933739 103.999749,149.024427 C104.156458,147.115114 31,148.460044 31,148.460044 C31,148.460044 32.3808845,161.179448 32.7173483,162.811997 C33.054734,164.44364 51.7049709,163.919959 51.7049709,163.919959 L53.5928557,157.870034 L81.4529838,157.870034 L82.830181,162.177067" id="Fill-143" fill="#996994"></path>
                <polyline id="Fill-144" fill="#FFFFFE" points="73.1658736 117 80.2893723 117 72.5250397 125.907269 81 136 73.9861772 136 68.9990936 129.573543 63.9793791 136 57 136 65.4377974 125.907269 57.676184 117 64.8694765 117 68.9990936 122.267069 73.1658736 117"></polyline>
                <path d="M85,168.956881 C85,168.956881 93.8204297,170.192714 101,168 C101,168 100.845272,169.167958 99.4879263,169.813604 C98.1315073,170.45925 87.2986855,171.974863 85.4382419,170.079312 L85,168.956881" id="Fill-145" fill="#EB9394"></path>
                <path d="M100,167.442117 C99.9486833,167.408214 97.72316,166 93.6268287,166 C91.0970065,166 87.8586541,166.53914 84,168.255788 L84.3916273,169 C88.1413459,167.332966 91.2356516,166.827729 93.6268287,166.826902 C95.5615575,166.826902 97.0371371,167.159316 98.024758,167.48677 C98.5190187,167.650496 98.8908395,167.812569 99.1357191,167.93247 C99.2581589,167.992834 99.3481882,168.041621 99.4067072,168.074697 L99.470628,168.111907 L99.4850326,168.120176 L100,167.442117" id="Fill-146" fill="#EB9394"></path>
                <path d="M34.5013709,168.080911 L34.5165911,168.07186 C34.7144536,167.956665 36.7378434,166.82282 40.3333893,166.82282 C42.7372839,166.82282 45.8502602,167.328031 49.6096469,169 L50,168.259463 C46.1295954,166.537302 42.8751609,165.999178 40.3333893,166.000001 C36.2749706,166.000001 34.0510324,167.366704 34,167.398794 L34.5022662,168.080911" id="Fill-147" fill="#EB9394"></path>
                <path d="M50,168.957067 C50,168.957067 41.2370143,170.126909 34,168 C34,168 34.1547281,169.167357 35.5120737,169.813957 C36.8694192,170.45973 47.702241,171.974811 49.5626846,170.07889 L50,168.957067" id="Fill-148" fill="#EB9394"></path>
                <path d="M72,3.5 C72,4.87996788 71.7763426,6 71.4996601,6 C71.2236574,6 71,4.87996788 71,3.5 C71,2.1190285 71.2236574,1 71.4996601,1 C71.7763426,1 72,2.1190285 72,3.5" id="Fill-149" fill="#FFFFFE"></path>
                <path d="M70.1831119,3.66368882 C70.9207141,4.75213071 71.2123243,5.78573926 70.8349464,5.97125874 C70.4575685,6.15677822 69.5548635,5.42475307 68.8172613,4.33631118 C68.0796592,3.2469554 67.788049,2.21426074 68.1643548,2.02874126 C68.5417326,1.84322178 69.4455097,2.57524693 70.1831119,3.66368882" id="Fill-150" fill="#FFFFFE"></path>
                <path d="M68.3363112,4.81688808 C69.4247531,5.55449027 70.1567782,6.45826738 69.9712587,6.83564525 C69.7857393,7.21195102 68.7530446,6.92034085 67.6636888,6.18273866 C66.5752469,5.44513646 65.8432218,4.54243145 66.0287413,4.16505358 C66.2142607,3.78767572 67.2469554,4.07928589 68.3363112,4.81688808" id="Fill-151" fill="#FFFFFE"></path>
                <path d="M68.5,7 C69.8809715,7 71,7.22418478 71,7.5 C71,7.77581522 69.8809715,8 68.5,8 C67.1190285,8 66,7.77581522 66,7.5 C66,7.22418478 67.1190285,7 68.5,7" id="Fill-152" fill="#FFFFFE"></path>
                <path d="M67.6636888,8.81660719 C68.7521307,8.08015095 69.7857393,7.78749803 69.9712587,8.16483806 C70.1567782,8.54217808 69.4247531,9.44586457 68.3363112,10.1833928 C67.2469554,10.9198491 66.2142607,11.212502 66.0287413,10.8351619 C65.8432218,10.4578219 66.5752469,9.55413543 67.6636888,8.81660719" id="Fill-153" fill="#FFFFFE"></path>
                <path d="M68.8167596,9.66332035 C69.5542458,8.57511953 70.4578807,7.8432565 70.8351993,8.02873489 C71.2125178,8.21421329 70.9198815,9.24759292 70.1823954,10.3357937 C69.4449092,11.4239946 68.5423461,12.1567713 68.1650276,11.9712929 C67.7877091,11.7849008 68.0792734,10.7524349 68.8167596,9.66332035" id="Fill-154" fill="#FFFFFE"></path>
                <path d="M71,11.5005019 C71,10.1192532 71.2236574,9 71.4996601,9 C71.7756628,9 72,10.1192532 72,11.5005019 C72,12.8807468 71.7756628,14 71.4996601,14 C71.2236574,14 71,12.8807468 71,11.5005019" id="Fill-155" fill="#FFFFFE"></path>
                <path d="M72.8176046,10.3357777 C72.0801185,9.24758386 71.7874822,8.21421087 72.1648007,8.02873367 C72.5421193,7.84325647 73.4457542,8.57511479 74.1832404,9.66422231 C74.9207266,10.7524161 75.2122909,11.7848754 74.8349724,11.9712663 C74.4576539,12.1567435 73.5540189,11.4248852 72.8176046,10.3357777" id="Fill-156" fill="#FFFFFE"></path>
                <path d="M74.6642223,10.1827387 C73.5751148,9.44513646 72.8432565,8.54243145 73.0287337,8.16505358 C73.2151246,7.78767572 74.2475839,8.07928589 75.3357777,8.81688808 C76.4248852,9.55449027 77.1567435,10.4582674 76.9712663,10.8356452 C76.7848754,11.211951 75.7524161,10.9203408 74.6642223,10.1827387" id="Fill-157" fill="#FFFFFE"></path>
                <path d="M75.5005019,8 C74.1192532,8 73,7.77634262 73,7.4996601 C73,7.22365738 74.1192532,7 75.5005019,7 C76.8807468,7 78,7.22365738 78,7.4996601 C78,7.77634262 76.8807468,8 75.5005019,8" id="Fill-158" fill="#FFFFFE"></path>
                <path d="M75.3355048,6.18311192 C74.2471325,6.92071411 73.2145039,7.21232428 73.0289963,6.83494642 C72.8425748,6.45756855 73.5745532,5.55486354 74.6638393,4.81726134 C75.7522116,4.07965915 76.785754,3.78804898 76.9712616,4.16435475 C77.1567692,4.54173262 76.4247909,5.44550973 75.3355048,6.18311192" id="Fill-159" fill="#FFFFFE"></path>
                <path d="M74.1823954,4.33631118 C73.4459811,5.42475307 72.5423461,6.15677822 72.1650276,5.97125874 C71.7877091,5.78573926 72.0792734,4.75213071 72.8167596,3.66368882 C73.5542458,2.57524693 74.4578807,1.84322178 74.8351993,2.02874126 C75.2125178,2.21426074 74.9198815,3.2469554 74.1823954,4.33631118" id="Fill-160" fill="#FFFFFE"></path>
                <path d="M71.6986762,3.82202908 C72.0935629,4.92241853 72.1015003,5.89413678 71.7155432,5.99189347 C71.3295861,6.09048569 70.6965767,5.27835316 70.30169,4.17796371 C69.9058111,3.07840979 69.8988659,2.10669155 70.284823,2.00809933 C70.6697879,1.9095071 71.3037895,2.72247516 71.6986762,3.82202908" id="Fill-161" fill="#FFFFFE"></path>
                <path d="M68.900741,4.04993704 C69.6985825,4.83978579 70.1663101,5.68167557 69.9451736,5.93012959 C69.7240371,6.17942298 68.8975592,5.74043159 68.0997177,4.95058285 C67.3018762,4.1607341 66.8341486,3.31800495 67.0544897,3.06955093 C67.2756262,2.82109692 68.1021041,3.25924893 68.900741,4.04993704" id="Fill-162" fill="#FFFFFE"></path>
                <path d="M68.1377834,6.21605406 C69.2400674,6.55961166 70.0708934,7.18764373 69.9952142,7.6209202 C69.9187124,8.05419667 68.9636738,8.12640942 67.8622124,7.78394594 C66.7607509,7.44038834 65.9291023,6.81235627 66.0047815,6.3790798 C66.0812833,5.94580333 67.036322,5.87359058 68.1377834,6.21605406" id="Fill-163" fill="#FFFFFE"></path>
                <path d="M67.821641,7.30169001 C68.9218703,6.90581111 69.8934471,6.89886587 69.992025,7.28482299 C70.0897674,7.6707801 69.2777531,8.30378947 68.1775238,8.69867618 C67.0781299,9.0935629 66.1065531,9.10150032 66.0079752,8.71554321 C65.9102327,8.32958609 66.7222471,7.69657672 67.821641,7.30169001" id="Fill-164" fill="#FFFFFE"></path>
                <path d="M69.0498894,9.0994271 C69.8397574,8.3014636 70.6816678,7.83366445 70.9301279,8.0548348 C71.1794274,8.27600514 70.7404252,9.10181383 69.9505572,9.9005729 C69.1606891,10.6985364 68.3179394,11.1663355 68.0694793,10.9451652 C67.8210192,10.7239949 68.2600213,9.8973906 69.0498894,9.0994271" id="Fill-165" fill="#FFFFFE"></path>
                <path d="M70.2157505,10.8617816 C70.5593666,9.76014784 71.1885998,8.92836912 71.6208557,9.00488289 C72.0542059,9.08057393 72.1264309,10.035762 71.7839092,11.1382184 C71.4413874,12.2398522 70.8121542,13.0716309 70.378804,12.9951171 C69.9465481,12.9194261 69.8732287,11.964238 70.2157505,10.8617816" id="Fill-166" fill="#FFFFFE"></path>
                <path d="M72.3013238,11.177967 C71.9064371,10.0784151 71.8984997,9.10669856 72.2844568,9.00810651 C72.6704139,8.90951447 73.3034233,9.72164554 73.69831,10.822033 C74.0941889,11.9224205 74.1011341,12.894137 73.715177,12.9918935 C73.3292199,13.0904855 72.6962105,12.2783545 72.3013238,11.177967" id="Fill-167" fill="#FFFFFE"></path>
                <path d="M74.0994271,9.95026689 C73.3014636,9.16051639 72.8336645,8.31873132 73.0548348,8.06946894 C73.2760051,7.82104582 74.1026094,8.25998261 74.9005729,9.04973311 C75.6985364,9.83948361 76.1663355,10.6812687 75.9451652,10.9305311 C75.7239949,11.1789542 74.8981862,10.7400174 74.0994271,9.95026689" id="Fill-168" fill="#FFFFFE"></path>
                <path d="M74.8626043,8.78340035 C73.7601478,8.44093623 72.9283691,7.81180886 73.0048828,7.37853157 C73.0805739,6.94634842 74.0357619,6.8730414 75.1382184,7.21659965 C76.2398521,7.55906377 77.0716309,8.18819114 76.9951171,8.62146843 C76.9194261,9.05365158 75.964238,9.1269586 74.8626043,8.78340035" id="Fill-169" fill="#FFFFFE"></path>
                <path d="M75.1779077,6.69871358 C74.07832,7.09355129 73.1065718,7.10148773 73.0079766,6.7155785 C72.9102169,6.32966928 73.7223744,5.69673847 74.8219621,5.3009087 C75.9223854,4.90607098 76.8941335,4.8991266 76.9918932,5.28404377 C77.0904885,5.669953 76.278331,6.30288381 75.1779077,6.69871358" id="Fill-170" fill="#FFFFFE"></path>
                <path d="M74.9502669,4.90007002 C74.1605164,5.69861933 73.3187313,6.16629562 73.0694689,5.94518336 C72.8210458,5.72407111 73.2599826,4.89768392 74.0497331,4.09992998 C74.8394836,3.30138067 75.6812687,2.83370438 75.9305311,3.05481664 C76.1789542,3.27592889 75.7400174,4.10231608 74.9502669,4.90007002" id="Fill-171" fill="#FFFFFE"></path>
                <path d="M73.7833913,4.13778536 C73.4409128,5.24006822 72.8117591,6.07089336 72.3795579,5.99521424 C71.9462625,5.91871252 71.8729524,4.9636749 72.216525,3.86221464 C72.5590035,2.75993178 73.1881572,1.92910664 73.6214526,2.00478576 C74.0536538,2.08128748 74.1269639,3.0363251 73.7833913,4.13778536" id="Fill-172" fill="#FFFFFE"></path>
                <path d="M74,7.49952061 C74,8.8801534 72.8808976,10 71.5,10 C70.1191024,10 69,8.8801534 69,7.49952061 C69,6.1198466 70.1191024,5 71.5,5 C72.8808976,5 74,6.1198466 74,7.49952061" id="Fill-173" fill="#EB9394"></path>
            </g>
        </g>
    </g>
</svg>