<?xml version="1.0" encoding="UTF-8"?>
<svg width="178px" height="200px" viewBox="0 0 178 200" version="1.1" xmlns="http://www.w3.org/2000/svg" xmlns:xlink="http://www.w3.org/1999/xlink">
    <!-- Generator: Sketch 46.2 (44496) - http://www.bohemiancoding.com/sketch -->
    <title>Artboard</title>
    <desc>Created with Sketch.</desc>
    <defs>
        <path d="M6.44335714,2.979 C3.24257143,2.979 0.648142857,2.456 0.648142857,1.812 C0.648142857,1.168 3.24257143,0.646 6.44335714,0.646 C9.64414286,0.646 12.2395,1.168 12.2395,1.812 C12.2395,2.456 9.64414286,2.979 6.44335714,2.979 Z" id="path-1"></path>
    </defs>
    <g id="Page-1" stroke="none" stroke-width="1" fill="none" fill-rule="evenodd">
        <g id="Artboard">
            <g id="Group-5" transform="translate(15.000000, 13.000000)">
                <path d="M89.0459829,95.88933 L66.522816,94 L44.0005747,95.88933 C44.0005747,95.88933 3.59844096,115.974291 7.23106053,126.967426 C10.8636801,137.958719 24.1234357,131.775541 26.1216078,130.745165 C28.1188544,129.714789 27.7560552,170.763939 33.386847,171.965738 C39.0176387,173.167536 46.645677,173.511302 47.1917268,171.965738 C47.7359256,170.420173 50.6420213,159.770804 51.005746,159.256537 C51.3694707,158.740427 64.9911,159.256537 64.9911,159.256537 C64.9911,159.256537 78.6136548,158.740427 78.9773795,159.256537 C79.3401787,159.770804 82.2471998,170.420173 82.7913986,171.965738 C83.3365229,173.511302 90.9654868,173.167536 96.5962785,171.965738 C102.22707,170.763939 101.863346,129.714789 103.860592,130.745165 C105.85969,131.775541 119.11852,137.958719 122.751139,126.967426 C126.383759,115.974291 89.0459829,95.88933 89.0459829,95.88933" id="Fill-307" fill="#FCE2CD"></path>
                <path d="M126.382377,54 C126.382377,54 121.623188,80.5323104 136,82.2098501 C136,82.2098501 123.351188,91.6712103 98.1249855,86.4050676 C72.9006377,81.1389248 72,75.9640023 72,75.9640023 L126.382377,54" id="Fill-308" fill="#32322E"></path>
                <path d="M8.85333333,54 C8.85333333,54 16.8329275,80.2708917 0,82.1093344 C0,82.1093344 12.6488116,91.7349417 37.874087,86.3773799 C63.0993623,81.0198182 64,75.7550602 64,75.7550602 L8.85333333,54" id="Fill-309" fill="#32322E"></path>
                <path d="M52.9484261,94.722608 C52.9484261,94.722608 47.6088861,111.267999 58.2879661,113.365302 C68.967046,115.462605 87.539359,113.365302 83.5927425,94.722608 L90.8452307,96.3109655 L104,130.950955 L100.844564,159.679346 L78.0219772,160 L49.964784,159.642992 L26.0092862,158.252247 L26,130.950955 C26,130.950955 41.2302252,99.8111312 41.8653984,96.1012352 C42.5015001,92.3922712 52.9484261,94.722608 52.9484261,94.722608" id="Fill-310" fill="#996994"></path>
                <path d="M126,54.8795256 C126,84.6371156 99.8080632,100 67.4995356,100 C35.191008,100 9,84.6371156 9,54.8795256 C9,25.1228631 35.191008,1 67.4995356,1 C99.8080632,1 126,25.1228631 126,54.8795256" id="Fill-311" fill="#FCE2CD"></path>
                <path d="M12.9278279,71.3611115 L41.1044683,50.6418074 L46.8996968,29.5157691 L49.4672031,49.5664689 L68.3868923,49.5664689 L73.0529752,29.5157691 L76.9994134,49.5664689 L94.8048141,51.106116 L102.767334,32.4223405 L102.767334,53.1955044 L123.061312,72 C123.061312,72 126.313177,65.7912663 126.876821,56.3676603 C128.117396,35.6362842 120.774235,1.61918377 68.4621068,0.00524730756 C68.4453924,0.00431869049 57.2087221,-0.291910154 46.3945527,3.70764356 C25.5462159,11.4188797 -0.5680623,35.0094677 12.5211126,70.3749201" id="Fill-312" fill="#32322E"></path>
                <path d="M91,74.5806452 C91,79.319871 89.2088889,80 87,80 C84.7911111,80 83,79.319871 83,74.5806452 C83,69.8414194 84.7911111,66 87,66 C89.2088889,66 91,69.8414194 91,74.5806452" id="Fill-313" fill="#5C3230"></path>
                <path d="M49,74.5806452 C49,79.319871 47.2088889,80 45,80 C42.7911111,80 41,79.319871 41,74.5806452 C41,69.8414194 42.7911111,66 45,66 C47.2088889,66 49,69.8414194 49,74.5806452" id="Fill-314" fill="#5C3230"></path>
                <g id="Group-317" transform="translate(91.000000, 82.000000)">
                    <mask id="mask-2" fill="white">
                        <use xlink:href="#path-1"></use>
                    </mask>
                    <g id="Clip-316"></g>
                    <polygon id="Fill-315" fill="#F1B6B2" mask="url(#mask-2)" points="0.648142857 2.979 12.2395 2.979 12.2395 0.646 0.648142857 0.646"></polygon>
                </g>
                <path d="M37,86 C33.686108,86 31,85.5525075 31,85.0004286 C31,84.4483498 33.686108,84 37,84 C40.313892,84 43,84.4483498 43,85.0004286 C43,85.5525075 40.313892,86 37,86" id="Fill-318" fill="#F1B6B2"></path>
                <path d="M66.999536,92 C64.2385151,92 62,89.8167981 62,87.1241179 C62,85.2915456 63.037587,85 64.5716937,85 C65.2900232,85 66.1187935,85.0639269 66.999536,85.0639269 C67.8812065,85.0639269 68.7099768,85 69.4283063,85 C70.9633411,85 72,85.2915456 72,87.1241179 C72,89.8167981 69.7614849,92 66.999536,92" id="Fill-319" fill="#F4C4B6"></path>
                <path d="M82,168.591168 L100,167 C100,167 99.4296769,170.591027 97.8899927,171.739902 C96.3512496,172.889685 85.0144306,173.684361 83.094531,172.151317 L82,168.591168" id="Fill-320" fill="#593B32"></path>
                <path d="M49,168.591168 L31,167 C31,167 31.569382,170.591027 33.1090662,171.739902 C34.6478093,172.889685 45.9846283,173.684361 47.9045279,172.151317 L49,168.591168" id="Fill-321" fill="#593B32"></path>
                <polyline id="Fill-322" fill="#98AF5F" points="117.956117 102 106 148.363636 137.423435 153 148 105.245455 117.956117 102"></polyline>
                <polyline id="Fill-324" fill="#C7C6C1" points="117.67051 101 105 146.707127 105.799041 147.363636 137 152"></polyline>
                <polyline id="Fill-325" fill="#EAEAE5" points="146.656343 104 148 104.862253 137.580506 152 136 151.275781 146.656343 104"></polyline>
                <polyline id="Fill-326" fill="#F4F4F1" points="117.131985 101 105 147.430327 136.08308 152 147 104.293767 117.131985 101"></polyline>
                <polyline id="Fill-327" fill="#A8C176" points="115.956117 100 104 146.363636 135.423435 151 146 103.245455 115.956117 100"></polyline>
                <path d="M139.988106,115.943528 C139.701031,118.297024 134.326258,119.557994 127.980989,118.760948 C121.636645,117.963902 116.724895,115.409968 117.011969,113.056472 C117.298118,110.702976 122.673817,109.442006 129.018161,110.239052 C135.362504,111.036098 140.274254,113.590973 139.988106,115.943528" id="Fill-328" fill="#98AF5F"></path>
                <polyline id="Fill-329" fill="#98AF5F" points="137 143.14335 105.83926 139 105 142.354685 136.171735 147 137 143.14335"></polyline>
                <path d="M29,12.6795999 C29,12.6795999 81.824864,32.7212802 114,16.9469569 C114,16.9469569 85.8162356,-11.3470186 41.5988033,5.18316331 C36.8740217,6.9498802 34.1311054,9.83347657 29,12.6795999" id="Fill-330" fill="#3B3C3A"></path>
            </g>
        </g>
    </g>
</svg>