<?xml version="1.0" encoding="UTF-8"?>
<svg width="178px" height="200px" viewBox="0 0 178 200" version="1.1" xmlns="http://www.w3.org/2000/svg" xmlns:xlink="http://www.w3.org/1999/xlink">
    <!-- Generator: Sketch 46.2 (44496) - http://www.bohemiancoding.com/sketch -->
    <title>Artboard</title>
    <desc>Created with Sketch.</desc>
    <defs></defs>
    <g id="Page-1" stroke="none" stroke-width="1" fill="none" fill-rule="evenodd">
        <g id="Artboard">
            <g id="Group-4" transform="translate(23.000000, 11.000000)">
                <path d="M6.20697762,54 C6.20697762,54 -7.95980209,153.738526 6.51184702,169.574458 C20.9834961,185.410391 115.971542,180.733557 123.726416,171.815881 C133.052912,161.091815 129.219854,58.3157478 129.219854,58.3157478 L6.20697762,54" id="Fill-386" fill="#32322E"></path>
                <path d="M90.5825356,99.9849783 L67.0885198,98 L43.5945041,99.9849783 C43.5945041,99.9849783 1.45182381,121.087719 5.24102547,132.635451 C9.03022714,144.184152 22.8615373,137.688915 24.9448741,136.605408 C27.0291764,135.523837 26.6507389,178.650153 32.5242429,179.913762 C38.3967814,181.176401 46.3545876,181.536602 46.9232092,179.913762 C47.4918308,178.288984 50.6680024,165.869798 51.0464398,165.328528 C51.4258427,164.787258 65.829636,165.6316 65.829636,165.6316 C65.829636,165.6316 79.7005276,166.018913 80.0789651,166.560183 C80.458368,167.100484 83.4897293,178.288984 84.0583509,179.913762 C84.6260071,181.536602 92.5838133,181.176401 98.4573172,179.913762 C104.330821,178.650153 103.951418,135.523837 106.035721,136.605408 C108.120023,137.688915 121.950368,144.184152 125.740535,132.635451 C129.528771,121.087719 90.5825356,99.9849783 90.5825356,99.9849783" id="Fill-387" fill="#FBDEC7"></path>
                <path d="M52.984904,98.7445052 C52.984904,98.7445052 47.4399971,115.791271 58.5298109,117.952129 C69.6196247,120.112987 88.9062574,117.952129 84.807848,98.7445052 L92.3392781,100.380995 L106,136.070681 L102.723201,165.669629 L79.0228225,166 L49.8865065,165.632174 L28.0829682,164.375995 L25,136.070681 C25,136.070681 40.8160031,103.987226 41.475606,100.164909 C42.1361732,96.3435522 52.984904,98.7445052 52.984904,98.7445052" id="Fill-388" fill="#B94236"></path>
                <path d="M128,57.0564762 C128,88.016393 100.913573,104 67.5004802,104 C34.0864271,104 7,88.016393 7,57.0564762 C7,26.0975242 34.0864271,1 67.5004802,1 C100.913573,1 128,26.0975242 128,57.0564762" id="Fill-389" fill="#FCE2CD"></path>
                <path d="M48.078495,129 L80.7265166,129 C80.7265166,129 84.3639295,141.51557 65.1077672,141.987856 C45.8525586,142.460142 48.078495,129 48.078495,129" id="Fill-390" fill="#F1AC44"></path>
                <path d="M8.84897685,77 L73.1224645,30.6340451 L125.539977,77 C125.539977,77 128.28877,68.2852399 128.872576,58.5035433 C130.156565,36.9865096 122.551697,1.68122567 68.3683404,0.00516198858 C68.3500664,0.00516198858 56.712417,-0.30325686 45.5114198,3.84786808 C23.9163666,11.8513372 -3.98706196,36.8004945 9.57031876,73.5061927" id="Fill-391" fill="#32322E"></path>
                <path d="M83,175.591341 L101,174 C101,174 100.430618,177.590509 98.8909338,178.740417 C97.3512496,179.889416 86.0144306,180.684178 84.0954721,179.151876 L83,175.591341" id="Fill-392" fill="#B94236"></path>
                <path d="M47,175.591341 L29,174 C29,174 29.5703231,177.590509 31.1100073,178.740417 C32.6487504,179.889416 43.9855694,180.684178 45.905469,179.151876 L47,175.591341" id="Fill-393" fill="#B94236"></path>
                <path d="M31.0421409,28.3519362 C39.1868825,31.9972561 41.0291792,47.0971869 36.8008492,48.6344411 C32.5725193,50.1707112 21.318961,46.367926 21.318961,46.367926 L18,42.1557313 C18,42.1557313 24.4117577,25.3847009 31.0421409,28.3519362" id="Fill-394" fill="#F1AC44"></path>
                <path d="M1.00578977,49.7560013 C1.46449635,58.7314035 14.6773659,65.568076 17.5895744,62.0656431 C20.501783,58.5632103 21,46.5765759 21,46.5765759 L18.3094354,42 C18.3094354,42 0.633813427,42.4491524 1.00578977,49.7560013" id="Fill-395" fill="#F1AC44"></path>
                <path d="M24.1932285,41.9290606 C25.6124961,43.9673904 25.1101501,46.7732452 23.0718203,48.1925128 C21.0325567,49.6127142 18.2267019,49.1103682 16.8074342,47.0720384 C15.3872328,45.0318411 15.8895789,42.22692 17.9288424,40.8067186 C19.9671722,39.387451 22.7730271,39.889797 24.1932285,41.9290606" id="Fill-396" fill="#B94236"></path>
                <path d="M27,13.60793 C27,13.60793 82.3107399,34.2075551 116,17.4014703 C116,17.4014703 86.4899408,-11.9887304 40.1926529,5.62163173 C35.2445639,7.50379639 32.3735339,10.5758241 27,13.60793" id="Fill-397" fill="#3B3C3A"></path>
                <path d="M93,76.1935484 C93,81.2703226 90.985,82 88.5,82 C86.014,82 84,81.2703226 84,76.1935484 C84,71.1158065 86.014,67 88.5,67 C90.985,67 93,71.1158065 93,76.1935484" id="Fill-398" fill="#5C3230"></path>
                <path d="M49,76.1935484 C49,81.2703226 46.985,82 44.5,82 C42.014,82 40,81.2703226 40,76.1935484 C40,71.1158065 42.014,67 44.5,67 C46.985,67 49,71.1158065 49,76.1935484" id="Fill-399" fill="#5C3230"></path>
                <path d="M98.9995193,87 C95.6858928,87 93,86.5525075 93,86.0004286 C93,85.4474925 95.6858928,85 98.9995193,85 C102.313146,85 105,85.4474925 105,86.0004286 C105,86.5525075 102.313146,87 98.9995193,87" id="Fill-400" fill="#F1B6B2"></path>
                <path d="M36,88 C32.686108,88 30,87.5516502 30,86.9995714 C30,86.4474925 32.686108,86 36,86 C39.313892,86 42,86.4474925 42,86.9995714 C42,87.5516502 39.313892,88 36,88" id="Fill-401" fill="#F1B6B2"></path>
                <path d="M67,94 C64.2383073,94 62,91.8177667 62,89.1250865 C62,87.2925142 63.0384187,87 64.5714551,87 C65.2906459,87 66.1184113,87.0639269 67,87.0639269 C67.8815887,87.0639269 68.7102821,87 69.4285449,87 C70.9634373,87 72,87.2925142 72,89.1250865 C72,91.8177667 69.7616927,94 67,94" id="Fill-402" fill="#F4C4B6"></path>
            </g>
        </g>
    </g>
</svg>