<?xml version="1.0" encoding="UTF-8"?>
<svg width="178px" height="200px" viewBox="0 0 178 200" version="1.1" xmlns="http://www.w3.org/2000/svg" xmlns:xlink="http://www.w3.org/1999/xlink">
    <!-- Generator: Sketch 46.2 (44496) - http://www.bohemiancoding.com/sketch -->
    <title>Artboard</title>
    <desc>Created with Sketch.</desc>
    <defs>
        <path d="M5.18344371,2.49226263 C3.05066225,2.49226263 1.17019868,2.31591919 0.0536423841,2.04836364 C1.62715232,1.6800404 3.12317881,1.14666667 4.51589404,0.47169697 C4.73543046,0.467353535 4.95794702,0.465616162 5.18344371,0.465616162 C8.60761589,0.465616162 11.3831126,0.919070707 11.3831126,1.47850505 C11.3831126,2.03793939 8.60761589,2.49226263 5.18344371,2.49226263 Z" id="path-1"></path>
    </defs>
    <g id="Page-1" stroke="none" stroke-width="1" fill="none" fill-rule="evenodd">
        <g id="Artboard">
            <g id="Group-3" transform="translate(16.000000, 15.000000)">
                <path d="M96.1837748,98.9356162 L72.0089404,97.1548081 L47.8350993,98.9356162 C47.8350993,98.9356162 4.47119205,117.867778 8.37019868,128.228606 C12.2692053,138.588566 26.5013245,132.761414 28.6460265,131.789354 C30.7897351,130.818162 30.3993377,169.509475 36.4430464,170.642242 C42.486755,171.775879 50.6751656,172.09903 51.2602649,170.642242 C51.8443709,169.185455 54.9645695,159.148646 55.3549669,158.663051 C55.7443709,158.176586 70.365894,158.663051 70.365894,158.663051 C70.365894,158.663051 84.9874172,158.176586 85.3768212,158.663051 C85.7672185,159.148646 88.8864238,169.185455 89.4705298,170.642242 C90.0556291,172.09903 98.2440397,171.775879 104.287748,170.642242 C110.331457,169.509475 109.942053,130.818162 112.085762,131.789354 C114.230464,132.761414 128.461589,138.588566 132.360596,128.228606 C136.260596,117.867778 96.1837748,98.9356162 96.1837748,98.9356162" id="Fill-58" fill="#FCE2CD"></path>
                <path d="M88.3172185,167.302141 L107.316556,165.879232 C107.316556,165.879232 106.715563,169.313152 105.090397,170.41204 C103.465232,171.511798 91.4990066,172.271899 89.4735099,170.806424 L88.3172185,167.302141" id="Fill-59" fill="#32322E"></path>
                <path d="M52.3569536,167.468929 L34.1940397,165.879232 C34.1940397,165.879232 34.0350993,169.313152 35.6592715,170.41204 C37.2844371,171.511798 49.2506623,172.271899 51.2771523,170.806424 L52.3569536,167.468929" id="Fill-60" fill="#32322E"></path>
                <path d="M31.2625828,152.246061 L109.408609,152.834162 C109.408609,152.834162 108.196689,167.055434 106.340066,168.845798 L89.168543,169.803091 L85.3768212,158.663051 L55.3549669,158.663051 L51.6913907,169.425212 L34.8635762,169.473859 C34.8635762,169.473859 32.2221854,165.828848 31.2625828,152.246061" id="Fill-61" fill="#E89C4D"></path>
                <path d="M10.2119205,122.111313 L16.9927152,134.265111 C16.9927152,134.265111 26.0006623,133.818606 28.6460265,131.789354 L30.4221854,152.997475 L110.264901,153.540404 C110.264901,153.540404 110.32053,131.073556 112.085762,131.789354 C113.850993,132.505152 119.546026,134.297253 122.431788,134.294646 C123.056623,134.293778 130.788079,122.111313 130.788079,122.111313 C130.788079,122.111313 126.407285,113.906566 97.2268212,98.9217172 L47.8350993,98.9356162 C47.8350993,98.9356162 13.7175497,114.029051 10.2119205,122.111313" id="Fill-62" fill="#32322E"></path>
                <path d="M135.837417,60.430202 C135.837417,88.3046263 107.823179,102.695293 73.2655629,102.695293 C38.707947,102.695293 10.6937086,88.3046263 10.6937086,60.430202 C10.6937086,32.5566465 38.707947,9.96036364 73.2655629,9.96036364 C107.823179,9.96036364 135.837417,32.5566465 135.837417,60.430202" id="Fill-63" fill="#FCE2CD"></path>
                <path d="M95.2331126,86.9008283 C90.2930464,86.9008283 85.8298013,85.1521616 82.5923841,82.3219798 C79.3549669,79.4909293 77.3562914,75.5879192 77.3562914,71.2688081 C77.3562914,66.9488283 79.3549669,63.0458182 82.5923841,60.2147677 C85.8298013,57.3837172 90.2930464,55.6359192 95.2331126,55.6359192 C100.172185,55.6359192 104.63543,57.3837172 107.872848,60.2147677 C111.110265,63.0458182 113.10894,66.9488283 113.10894,71.2688081 C113.10894,75.5879192 111.110265,79.4909293 107.872848,82.3219798 C104.63543,85.1521616 100.172185,86.9008283 95.2331126,86.9008283 M106.415563,71.5137778 C106.415563,71.5137778 110.202318,78.3451313 100.516887,85.3484848 C100.516887,85.3484848 111.258278,82.9057374 112.314238,71.8291111 L106.415563,71.5137778 M91.8119205,73.1165051 C91.1572848,74.5515758 90.7619205,76.4053535 90.7619205,78.4293939 C90.7619205,82.9873939 92.7635762,83.6415152 95.2331126,83.6415152 C97.7016556,83.6415152 99.7023179,82.9873939 99.7023179,78.4293939 C99.7023179,73.8722626 97.7016556,70.1768687 95.2331126,70.1768687 C95.0980132,70.1768687 94.9649007,70.1881616 94.8327815,70.2098788 C95.3453642,69.288202 95.6334437,68.253596 95.6334437,67.1599192 C95.6334437,63.3072929 92.0612583,60.1834949 87.6556291,60.1834949 C83.2490066,60.1834949 79.6768212,63.3072929 79.6768212,67.1599192 C79.6768212,71.0134141 83.2490066,74.1372121 87.6556291,74.1372121 C89.1784768,74.1372121 90.6019868,73.7636768 91.8119205,73.1165051" id="Fill-66" fill="#E46B95"></path>
                <path d="M95.2331126,83.6415152 C92.7635762,83.6415152 90.7619205,82.9873939 90.7619205,78.4293939 C90.7619205,76.4053535 91.1572848,74.5515758 91.8119205,73.1165051 C93.1102649,72.4224242 94.163245,71.4121414 94.8327815,70.2098788 C94.9649007,70.1881616 95.0980132,70.1768687 95.2331126,70.1768687 C97.7016556,70.1768687 99.7023179,73.8722626 99.7023179,78.4293939 C99.7023179,82.9873939 97.7016556,83.6415152 95.2331126,83.6415152" id="Fill-67" fill="#B33561"></path>
                <path d="M48.5890728,86.9008283 C43.6490066,86.9008283 39.186755,85.1521616 35.9483444,82.3219798 C32.7119205,79.4909293 30.7122517,75.5879192 30.7122517,71.2688081 C30.7122517,66.9488283 32.7119205,63.0458182 35.9483444,60.2147677 C39.186755,57.3837172 43.6490066,55.6359192 48.5890728,55.6359192 C53.5281457,55.6359192 57.9913907,57.3837172 61.2298013,60.2147677 C64.4662252,63.0458182 66.4649007,66.9488283 66.465894,71.2688081 C66.4649007,75.5879192 64.4662252,79.4909293 61.2298013,82.3219798 C57.9913907,85.1521616 53.5281457,86.9008283 48.5890728,86.9008283 M43.8327815,85.3484848 L43.8327815,85.3484848 C34.147351,78.3451313 37.934106,71.5137778 37.934106,71.5137778 L32.0364238,71.8291111 C33.0913907,82.9057374 43.8327815,85.3484848 43.8327815,85.3484848 M48.4698675,70.5495354 C46.6519868,71.596303 45.3327815,74.7287879 45.3327815,78.4293939 C45.3327815,82.9873939 47.3334437,83.6415152 49.8029801,83.6415152 C52.2715232,83.6415152 54.2731788,82.9873939 54.2731788,78.4293939 C54.2731788,77.0455758 54.0884106,75.7416768 53.7625828,74.5967475 C54.4221854,74.7513737 55.1165563,74.833899 55.8317881,74.833899 C60.2384106,74.833899 63.810596,71.710101 63.810596,67.8566061 C63.810596,64.0039798 60.2384106,60.8801818 55.8317881,60.8801818 C51.4261589,60.8801818 47.8539735,64.0039798 47.8539735,67.8566061 C47.8539735,68.8112929 48.0735099,69.7208081 48.4698675,70.5495354" id="Fill-68" fill="#E46B95"></path>
                <path d="M49.8029801,83.6415152 C47.3334437,83.6415152 45.3327815,82.9873939 45.3327815,78.4293939 C45.3327815,74.7287879 46.6519868,71.596303 48.4698675,70.5495354 C49.4145695,72.5223232 51.3665563,74.0355758 53.7625828,74.5967475 C54.0884106,75.7416768 54.2731788,77.0455758 54.2731788,78.4293939 C54.2731788,82.9873939 52.2715232,83.6415152 49.8029801,83.6415152" id="Fill-69" fill="#B33561"></path>
                <path d="M114.102318,71.2688081 L113.10894,71.2688081 C113.10894,75.5879192 111.110265,79.4909293 107.872848,82.3219798 C104.63543,85.1521616 100.172185,86.9008283 95.2331126,86.9008283 C90.2930464,86.9008283 85.8298013,85.1521616 82.5923841,82.3219798 C79.3549669,79.4909293 77.3562914,75.5879192 77.3562914,71.2688081 C77.3562914,66.9488283 79.3549669,63.0458182 82.5923841,60.2147677 C85.8298013,57.3837172 90.2930464,55.6359192 95.2331126,55.6359192 C100.172185,55.6359192 104.63543,57.3837172 107.872848,60.2147677 C111.110265,63.0458182 113.10894,66.9488283 113.10894,71.2688081 L115.095695,71.2688081 C115.094702,61.6750303 106.20298,53.8985455 95.2331126,53.8985455 C84.2622517,53.8985455 75.3695364,61.6750303 75.3695364,71.2688081 C75.3695364,80.8617172 84.2622517,88.6373333 95.2331126,88.638202 C106.20298,88.6373333 115.094702,80.8617172 115.095695,71.2688081 L114.102318,71.2688081" id="Fill-70" fill="#E89C4D"></path>
                <path d="M67.4582781,71.2688081 L66.465894,71.2688081 C66.4649007,75.5879192 64.4662252,79.4909293 61.2298013,82.3219798 C57.9913907,85.1521616 53.5281457,86.9008283 48.5890728,86.9008283 C43.6490066,86.9008283 39.186755,85.1521616 35.9483444,82.3219798 C32.7119205,79.4909293 30.7122517,75.5879192 30.7122517,71.2688081 C30.7122517,66.9488283 32.7119205,63.0458182 35.9483444,60.2147677 C39.186755,57.3837172 43.6490066,55.6359192 48.5890728,55.6359192 C53.5281457,55.6359192 57.9913907,57.3837172 61.2298013,60.2147677 C64.4662252,63.0458182 66.4649007,66.9488283 66.465894,71.2688081 L68.4516556,71.2688081 C68.4516556,61.6750303 59.5589404,53.8985455 48.5890728,53.8985455 C37.6182119,53.8985455 28.7264901,61.6750303 28.7254967,71.2688081 C28.7264901,80.8617172 37.6182119,88.6373333 48.5890728,88.638202 C59.5589404,88.6373333 68.4516556,80.8617172 68.4516556,71.2688081 L67.4582781,71.2688081" id="Fill-71" fill="#E89C4D"></path>
                <path d="M68.1506623,73.0409293 L67.9847682,72.9123636 L68.1486755,73.0426667 L68.1506623,73.0409293 L67.9847682,72.9123636 L68.1486755,73.0426667 C68.1675497,73.0235556 68.6195364,72.597899 69.3268212,72.198303 C70.0360927,71.7943636 70.9817881,71.4303838 71.9980132,71.4329899 C72.5264901,71.4338586 73.0817881,71.5250707 73.686755,71.768303 C74.2897351,72.012404 74.9463576,72.4146061 75.6397351,73.058303 L77.0860927,71.8673333 C76.2466887,71.0872525 75.3834437,70.5399798 74.5201987,70.1916364 C73.6569536,69.8415556 72.7966887,69.6947475 71.9980132,69.6956162 C70.394702,69.6990909 69.0745033,70.2593939 68.1586093,70.7901616 C67.2407285,71.3252727 66.7062914,71.8482222 66.6675497,71.8847071 L68.1506623,73.0409293" id="Fill-72" fill="#E89C4D"></path>
                <polyline id="Fill-73" fill="#E89C4D" points="114.624834 75.9345253 131.310596 66.921899 130.266556 65.4433939 113.580795 74.4568889"></polyline>
                <polyline id="Fill-74" fill="#E89C4D" points="30.6764901 74.4073737 18.292053 69.3889697 17.4566225 70.9656364 29.8410596 75.9840404"></polyline>
                <path d="M14.8142384,77.3530909 C14.8142384,77.3530909 27.0695364,40.9368687 45.1162252,40.0681818 C53.1993377,39.6790101 62.5440397,24.7871111 72.7649007,25.1919192 C82.1701987,25.5645859 87.7956954,42.2633535 106.125497,37.7878788 C119.554967,34.5094545 130.245695,66.0236768 132.521523,75.3342626 C132.521523,75.3342626 135.08543,70.7823434 135.731126,63.4002424 C137.31755,45.2733535 131.874834,12.9755758 81.5364238,10.1792727 C9.79470199,6.19460606 10.4384106,57.8397778 10.5864238,63.9066869 C10.7344371,69.973596 14.8142384,77.3530909 14.8142384,77.3530909" id="Fill-75" fill="#32322E"></path>
                <path d="M91.3082781,29.0462828 C91.3082781,32.5149495 88.0927152,35.3268889 84.1261589,35.3268889 C80.160596,35.3268889 76.9450331,32.5149495 76.9450331,29.0462828 C76.9450331,25.5784848 80.160596,22.7665455 84.1261589,22.7665455 C88.0927152,22.7665455 91.3082781,25.5784848 91.3082781,29.0462828" id="Fill-76" fill="#32322E"></path>
                <path d="M102.81457,33.0465859 C102.81457,36.5143838 99.5990066,39.3263232 95.6334437,39.3263232 C91.6668874,39.3263232 88.4523179,36.5143838 88.4523179,33.0465859 C88.4523179,29.5779192 91.6668874,26.7668485 95.6334437,26.7668485 C99.5990066,26.7668485 102.81457,29.5779192 102.81457,33.0465859" id="Fill-77" fill="#32322E"></path>
                <path d="M114.816556,39.8058384 C114.816556,43.2745051 110.881788,45.6060606 106.916225,45.6060606 C102.949669,45.6060606 99.7350993,42.7941212 99.7350993,39.3263232 C99.7350993,35.8576566 102.949669,33.0465859 106.916225,33.0465859 C110.881788,33.0465859 114.816556,36.3380404 114.816556,39.8058384" id="Fill-78" fill="#32322E"></path>
                <path d="M124.751325,45.6060606 C124.751325,49.0747273 121.536755,51.885798 117.570199,51.885798 C113.604636,51.885798 110.389073,49.0747273 110.389073,45.6060606 C110.389073,42.1373939 113.604636,39.3263232 117.570199,39.3263232 C121.536755,39.3263232 124.751325,42.1373939 124.751325,45.6060606" id="Fill-79" fill="#32322E"></path>
                <path d="M134.850993,53.5145859 C134.850993,56.9832525 131.63543,59.7943232 127.669868,59.7943232 C123.703311,59.7943232 120.488742,56.9832525 120.488742,53.5145859 C120.488742,50.0467879 123.703311,47.2348485 127.669868,47.2348485 C131.63543,47.2348485 134.850993,50.0467879 134.850993,53.5145859" id="Fill-80" fill="#32322E"></path>
                <path d="M139.80894,61.9660404 C139.80894,65.4347071 136.594371,68.2466465 132.627815,68.2466465 C128.662252,68.2466465 125.446689,65.4347071 125.446689,61.9660404 C125.446689,58.4982424 128.662252,55.686303 132.627815,55.686303 C136.594371,55.686303 139.80894,58.4982424 139.80894,61.9660404" id="Fill-81" fill="#32322E"></path>
                <path d="M142.032119,72.4632525 C142.032119,75.9310505 138.81755,78.7429899 134.850993,78.7429899 C130.884437,78.7429899 127.669868,75.9310505 127.669868,72.4632525 C127.669868,68.9945859 130.884437,66.1826465 134.850993,66.1826465 C138.81755,66.1826465 142.032119,68.9945859 142.032119,72.4632525" id="Fill-82" fill="#32322E"></path>
                <path d="M64.1970199,27.9604242 C64.1970199,31.4290909 67.4125828,34.2410303 71.3781457,34.2410303 C75.344702,34.2410303 78.5592715,31.4290909 78.5592715,27.9604242 C78.5592715,24.4926263 75.344702,21.6806869 71.3781457,21.6806869 C67.4125828,21.6806869 64.1970199,24.4926263 64.1970199,27.9604242" id="Fill-83" fill="#32322E"></path>
                <path d="M52.6907285,31.9607273 C52.6907285,35.4285253 55.905298,38.2404646 59.8718543,38.2404646 C63.8374172,38.2404646 67.0529801,35.4285253 67.0529801,31.9607273 C67.0529801,28.4920606 63.8374172,25.6801212 59.8718543,25.6801212 C55.905298,25.6801212 52.6907285,28.4920606 52.6907285,31.9607273" id="Fill-84" fill="#32322E"></path>
                <path d="M41.407947,38.2404646 C41.407947,41.7082626 44.6225166,44.520202 48.5890728,44.520202 C52.5546358,44.520202 55.7701987,41.7082626 55.7701987,38.2404646 C55.7701987,34.771798 52.5546358,31.9607273 48.5890728,31.9607273 C44.6225166,31.9607273 41.407947,34.771798 41.407947,38.2404646" id="Fill-85" fill="#32322E"></path>
                <path d="M30.7529801,44.520202 C30.7529801,47.988 33.968543,50.7999394 37.934106,50.7999394 C41.9006623,50.7999394 45.1162252,47.988 45.1162252,44.520202 C45.1162252,41.0515354 41.9006623,38.2404646 37.934106,38.2404646 C33.968543,38.2404646 30.7529801,41.0515354 30.7529801,44.520202" id="Fill-86" fill="#32322E"></path>
                <path d="M20.6543046,52.4287273 C20.6543046,55.8973939 23.8688742,58.7084646 27.8354305,58.7084646 C31.8009934,58.7084646 35.0165563,55.8973939 35.0165563,52.4287273 C35.0165563,48.9600606 31.8009934,46.1489899 27.8354305,46.1489899 C23.8688742,46.1489899 20.6543046,48.9600606 20.6543046,52.4287273" id="Fill-87" fill="#32322E"></path>
                <path d="M15.6953642,60.8801818 C15.6953642,64.3488485 18.9109272,67.1599192 22.8764901,67.1599192 C26.8430464,67.1599192 30.0586093,64.3488485 30.0586093,60.8801818 C30.0586093,57.4123838 26.8430464,54.6004444 22.8764901,54.6004444 C18.9109272,54.6004444 15.6953642,57.4123838 15.6953642,60.8801818" id="Fill-88" fill="#32322E"></path>
                <path d="M11.6304636,68.9155354 C11.6304636,72.384202 14.8460265,75.1961414 18.8115894,75.1961414 C22.7781457,75.1961414 25.9937086,72.384202 25.9937086,68.9155354 C25.9937086,65.4477374 22.7781457,62.635798 18.8115894,62.635798 C14.8460265,62.635798 11.6304636,65.4477374 11.6304636,68.9155354" id="Fill-89" fill="#32322E"></path>
                <path d="M19.7016556,75.1961414 C19.7016556,78.6639394 16.4870861,81.4758788 12.5205298,81.4758788 C8.55496689,81.4758788 5.33940397,78.6639394 5.33940397,75.1961414 C5.33940397,71.7274747 8.55496689,68.9155354 12.5205298,68.9155354 C16.4870861,68.9155354 19.7016556,71.7274747 19.7016556,75.1961414" id="Fill-90" fill="#32322E"></path>
                <path d="M91.3082781,7.69135354 C91.3082781,11.1600202 88.0927152,13.9710909 84.1261589,13.9710909 C80.160596,13.9710909 76.9450331,11.1600202 76.9450331,7.69135354 C76.9450331,4.22268687 80.160596,1.41161616 84.1261589,1.41161616 C88.0927152,1.41161616 91.3082781,4.22268687 91.3082781,7.69135354" id="Fill-91" fill="#3B3C3A"></path>
                <path d="M102.81457,11.6907879 C102.81457,15.1594545 99.5990066,17.9705253 95.6334437,17.9705253 C91.6668874,17.9705253 88.4523179,15.1594545 88.4523179,11.6907879 C88.4523179,8.2229899 91.6668874,5.41105051 95.6334437,5.41105051 C99.5990066,5.41105051 102.81457,8.2229899 102.81457,11.6907879" id="Fill-92" fill="#3B3C3A"></path>
                <path d="M124.751325,24.2511313 C124.751325,27.7189293 121.536755,30.5308687 117.570199,30.5308687 C113.604636,30.5308687 110.389073,27.7189293 110.389073,24.2511313 C110.389073,20.7824646 113.604636,17.9705253 117.570199,17.9705253 C121.536755,17.9705253 124.751325,20.7824646 124.751325,24.2511313" id="Fill-94" fill="#32322E"></path>
                <path d="M134.850993,32.1596566 C134.850993,35.6274545 131.63543,38.4393939 127.669868,38.4393939 C123.703311,38.4393939 120.488742,35.6274545 120.488742,32.1596566 C120.488742,28.6909899 123.703311,25.8799192 127.669868,25.8799192 C131.63543,25.8799192 134.850993,28.6909899 134.850993,32.1596566" id="Fill-95" fill="#32322E"></path>
                <path d="M139.80894,40.6111111 C139.80894,44.0789091 136.594371,46.8908485 132.627815,46.8908485 C128.662252,46.8908485 125.446689,44.0789091 125.446689,40.6111111 C125.446689,37.1424444 128.662252,34.3313737 132.627815,34.3313737 C136.594371,34.3313737 139.80894,37.1424444 139.80894,40.6111111" id="Fill-96" fill="#32322E"></path>
                <path d="M143.873841,48.6464646 C143.873841,52.1151313 140.659272,54.926202 136.692715,54.926202 C132.727152,54.926202 129.511589,52.1151313 129.511589,48.6464646 C129.511589,45.177798 132.727152,42.3667273 136.692715,42.3667273 C140.659272,42.3667273 143.873841,45.177798 143.873841,48.6464646" id="Fill-97" fill="#32322E"></path>
                <path d="M64.1970199,6.60549495 C64.1970199,10.0732929 67.4125828,12.8852323 71.3781457,12.8852323 C75.344702,12.8852323 78.5592715,10.0732929 78.5592715,6.60549495 C78.5592715,3.13682828 75.344702,0.325757576 71.3781457,0.325757576 C67.4125828,0.325757576 64.1970199,3.13682828 64.1970199,6.60549495" id="Fill-98" fill="#3B3C3A"></path>
                <path d="M52.6907285,10.6049293 C52.6907285,14.073596 55.905298,16.8846667 59.8718543,16.8846667 C63.8374172,16.8846667 67.0529801,14.073596 67.0529801,10.6049293 C67.0529801,7.13626263 63.8374172,4.32519192 59.8718543,4.32519192 C55.905298,4.32519192 52.6907285,7.13626263 52.6907285,10.6049293" id="Fill-99" fill="#3B3C3A"></path>
                <path d="M40.1662252,13.5185051 C40.1662252,16.9871717 43.3807947,19.7982424 47.347351,19.7982424 C51.3129139,19.7982424 54.5284768,16.9871717 54.5284768,13.5185051 C54.5284768,10.0507071 51.3129139,7.23876768 47.347351,7.23876768 C43.3807947,7.23876768 40.1662252,10.0507071 40.1662252,13.5185051" id="Fill-100" fill="#3B3C3A"></path>
                <path d="M19.7016556,26.0788485 C19.7016556,29.5466465 22.9172185,32.3585859 26.8827815,32.3585859 C30.8493377,32.3585859 34.0649007,29.5466465 34.0649007,26.0788485 C34.0649007,22.6101818 30.8493377,19.7982424 26.8827815,19.7982424 C22.9172185,19.7982424 19.7016556,22.6101818 19.7016556,26.0788485" id="Fill-102" fill="#32322E"></path>
                <path d="M11.6304636,35.3268889 C11.6304636,38.7946869 14.8460265,41.6066263 18.8115894,41.6066263 C22.7781457,41.6066263 25.9937086,38.7946869 25.9937086,35.3268889 C25.9937086,31.8582222 22.7781457,29.0462828 18.8115894,29.0462828 C14.8460265,29.0462828 11.6304636,31.8582222 11.6304636,35.3268889" id="Fill-103" fill="#32322E"></path>
                <path d="M6.2910596,43.6567273 C6.2910596,47.1253939 9.50662252,49.9364646 13.4721854,49.9364646 C17.4387417,49.9364646 20.6543046,47.1253939 20.6543046,43.6567273 C20.6543046,40.1889293 17.4387417,37.3769899 13.4721854,37.3769899 C9.50662252,37.3769899 6.2910596,40.1889293 6.2910596,43.6567273" id="Fill-104" fill="#32322E"></path>
                <path d="M16.9490066,51.4514545 C16.9490066,54.9201212 13.7344371,57.7311919 9.76788079,57.7311919 C5.80231788,57.7311919 2.58675497,54.9201212 2.58675497,51.4514545 C2.58675497,47.9827879 5.80231788,45.1717172 9.76788079,45.1717172 C13.7344371,45.1717172 16.9490066,47.9827879 16.9490066,51.4514545" id="Fill-105" fill="#32322E"></path>
                <path d="M145.984768,56.3282626 C145.984768,59.7960606 142.770199,62.608 138.803642,62.608 C134.838079,62.608 131.622517,59.7960606 131.622517,56.3282626 C131.622517,52.859596 134.838079,50.0485253 138.803642,50.0485253 C142.770199,50.0485253 145.984768,52.859596 145.984768,56.3282626" id="Fill-106" fill="#32322E"></path>
                <path d="M149.213245,64.988202 C149.213245,68.4568687 145.998675,71.2688081 142.032119,71.2688081 C138.066556,71.2688081 134.850993,68.4568687 134.850993,64.988202 C134.850993,61.520404 138.066556,58.7084646 142.032119,58.7084646 C145.998675,58.7084646 149.213245,61.520404 149.213245,64.988202" id="Fill-107" fill="#32322E"></path>
                <path d="M15.6953642,59.2696364 C15.6953642,62.738303 12.4807947,65.5493737 8.51423841,65.5493737 C4.5486755,65.5493737 1.33311258,62.738303 1.33311258,59.2696364 C1.33311258,55.8009697 4.5486755,52.989899 8.51423841,52.989899 C12.4807947,52.989899 15.6953642,55.8009697 15.6953642,59.2696364" id="Fill-108" fill="#32322E"></path>
                <path d="M14.5837748,68.0468485 C14.5837748,71.5155152 11.3692053,74.3274545 7.40264901,74.3274545 C3.43708609,74.3274545 0.221523179,71.5155152 0.221523179,68.0468485 C0.221523179,64.5790505 3.43708609,61.7671111 7.40264901,61.7671111 C11.3692053,61.7671111 14.5837748,64.5790505 14.5837748,68.0468485" id="Fill-109" fill="#32322E"></path>
                <path d="M17.8748344,62.635798 C17.8748344,66.1044646 14.6592715,68.9155354 10.6937086,68.9155354 C6.72715232,68.9155354 3.5115894,66.1044646 3.5115894,62.635798 C3.5115894,59.168 6.72715232,56.3560606 10.6937086,56.3560606 C14.6592715,56.3560606 17.8748344,59.168 17.8748344,62.635798" id="Fill-110" fill="#32322E"></path>
                <g id="Group-113" transform="translate(100.331126, 86.000000)">
                    <mask id="mask-2" fill="white">
                        <use xlink:href="#path-1"></use>
                    </mask>
                    <g id="Clip-112"></g>
                    <polygon id="Fill-111" fill="#F1B6B2" mask="url(#mask-2)" points="0.0536423841 2.49226263 11.3831126 2.49226263 11.3831126 0.465616162 0.0536423841 0.465616162"></polygon>
                </g>
                <path d="M41.0155629,89.5051515 C37.5923841,89.5051515 34.815894,89.051697 34.815894,88.4922626 C34.815894,87.9328283 37.5923841,87.4785051 41.0155629,87.4785051 C41.160596,87.4785051 41.3036424,87.4793737 41.4456954,87.4811111 C43.2466887,88.0883232 45.1738411,88.4731515 47.1844371,88.5956364 C46.8675497,89.1064242 44.2261589,89.5051515 41.0155629,89.5051515" id="Fill-115" fill="#F1B6B2"></path>
                <path d="M73.4642384,94.7702626 C70.507947,94.7702626 68.1119205,92.8122424 68.1119205,90.3981616 C68.1119205,88.7546061 69.2225166,88.4922626 70.8645695,88.4922626 C71.6344371,88.4922626 72.5205298,88.549596 73.4642384,88.549596 C74.407947,88.549596 75.2940397,88.4922626 76.0639073,88.4922626 C77.7059603,88.4922626 78.8165563,88.7546061 78.8165563,90.3981616 C78.8165563,92.8122424 76.4205298,94.7702626 73.4642384,94.7702626" id="Fill-117" fill="#F4C4B6"></path>
                <polyline id="Fill-118" fill="#F7E17A" points="57.7211921 131.167374 86.5241722 131.167374 91.1850993 116.723717 78.0387417 123.569838 71.6443709 113.692869 65.7655629 123.309232 52.2347682 116.990404 57.660596 130.937172"></polyline>
                <path d="M87.6556291,74.1372121 C83.2490066,74.1372121 79.6768212,71.0134141 79.6768212,67.1599192 C79.6768212,63.3072929 83.2490066,60.1834949 87.6556291,60.1834949 C92.0612583,60.1834949 95.6334437,63.3072929 95.6334437,67.1599192 C95.6334437,68.253596 95.3453642,69.288202 94.8327815,70.2098788 C93.6228477,70.4079394 92.5519868,71.4955354 91.8119205,73.1165051 C90.6019868,73.7636768 89.1784768,74.1372121 87.6556291,74.1372121" id="Fill-119" fill="#E579A5"></path>
                <path d="M55.8317881,74.833899 C55.1165563,74.833899 54.4221854,74.7513737 53.7625828,74.5967475 C53.0145695,71.9689697 51.5215232,70.1768687 49.8029801,70.1768687 C49.3380795,70.1768687 48.8910596,70.3071717 48.4698675,70.5495354 C48.0735099,69.7208081 47.8539735,68.8112929 47.8539735,67.8566061 C47.8539735,64.0039798 51.4261589,60.8801818 55.8317881,60.8801818 C60.2384106,60.8801818 63.810596,64.0039798 63.810596,67.8566061 C63.810596,71.710101 60.2384106,74.833899 55.8317881,74.833899" id="Fill-121" fill="#E579A5"></path>
                <path d="M100.516887,85.3484848 C110.202318,78.3451313 106.415563,71.5137778 106.415563,71.5137778 L112.314238,71.8291111 C111.258278,82.9057374 100.516887,85.3484848 100.516887,85.3484848" id="Fill-123" fill="#E579A5"></path>
                <path d="M43.8327815,85.3484848 C43.8327815,85.3484848 33.0913907,82.9057374 32.0364238,71.8291111 L37.934106,71.5137778 C37.934106,71.5137778 34.147351,78.3451313 43.8327815,85.3484848" id="Fill-124" fill="#E579A5"></path>
                <path d="M26.8827815,19.7982424 C26.8827815,19.7982424 89.8519868,37.7600808 124.541722,22.7665455 C124.541722,22.7665455 95.947351,-3.49559596 41.4347682,11.7220606 C36.2483444,13.1692929 30,17.5891717 26.8827815,19.7982424" id="Fill-125" fill="#3B3C3A"></path>
                <path d="M124.541722,22.7665455 C124.541722,22.7665455 123.799669,16.7222222 114.086424,15.9881818" id="Fill-126" fill="#3B3C3A"></path>
                <path d="M40.3619205,12.0573737 C40.3619205,12.0573737 28.4354305,12.0165455 26.8827815,19.7982424" id="Fill-127" fill="#3B3C3A"></path>
            </g>
        </g>
    </g>
</svg>