<?xml version="1.0" encoding="UTF-8"?>
<svg width="178px" height="200px" viewBox="0 0 178 200" version="1.1" xmlns="http://www.w3.org/2000/svg" xmlns:xlink="http://www.w3.org/1999/xlink">
    <!-- Generator: Sketch 46.2 (44496) - http://www.bohemiancoding.com/sketch -->
    <title>Artboard</title>
    <desc>Created with Sketch.</desc>
    <defs></defs>
    <g id="Page-1" stroke="none" stroke-width="1" fill="none" fill-rule="evenodd">
        <g id="Artboard">
            <g id="Group-2" transform="translate(15.000000, 13.000000)">
                <path d="M82.0459829,94.8884171 L59.522816,93 L37.0005747,94.8884171 C37.0005747,94.8884171 -3.40155904,114.974392 0.231060529,125.965736 C3.8636801,136.958001 17.1234357,130.775716 19.1216078,129.744413 C21.11978,128.714954 20.7560552,169.763373 26.386847,170.966098 C32.0176387,172.167902 39.6466025,172.510748 40.1908013,170.966098 C40.7359256,169.419605 43.6420213,158.770186 44.005746,158.255917 C44.3685452,157.740727 57.9911,158.255917 57.9911,158.255917 C57.9911,158.255917 71.6136548,157.740727 71.9773795,158.255917 C72.3401787,158.770186 75.2462743,169.419605 75.7913986,170.966098 C76.3365229,172.510748 83.9645613,172.167902 89.595353,170.966098 C95.2261447,169.763373 94.8633455,128.714954 96.8605922,129.744413 C98.8596898,130.775716 112.11852,136.958001 115.751139,125.965736 C119.383759,114.974392 82.0459829,94.8884171 82.0459829,94.8884171" id="Fill-366" fill="#FCE2CD"></path>
                <path d="M36.6265731,95.090161 C36.6265731,95.090161 13.0367343,106.948716 10.3194683,111.461329 C7.9853471,115.33768 19.206941,130.119125 19.206941,130.119125 L21.4714839,150 L94.2114589,150 L97.1309659,130.119125 C97.1309659,130.119125 106.036993,116.988978 105.999884,110.627284 C105.999884,110.627284 85.0892753,93.6935551 82.3061419,94.004223 C79.5230085,94.3148908 36.6265731,95.090161 36.6265731,95.090161" id="Fill-367" fill="#E7CD93"></path>
                <path d="M76,100.070685 C76,105.554249 69.7317025,110 62,110 C54.2673719,110 48,105.554249 48,100.070685 C48,94.5871214 54.7986777,94 62.5303802,94 C70.2630083,94 76,94.5871214 76,100.070685" id="Fill-368" fill="#FBDEC7"></path>
                <path d="M119,53.879103 C119,83.6369717 92.8082712,99 60.5,99 C28.1917288,99 2,83.6369717 2,53.879103 C2,24.123089 28.1917288,0 60.5,0 C92.8082712,0 119,24.123089 119,53.879103" id="Fill-369" fill="#FCE2CD"></path>
                <path d="M85,72.5806452 C85,77.3189677 83.2097778,78 81,78 C78.7911111,78 77,77.3189677 77,72.5806452 C77,67.8414194 78.7911111,64 81,64 C83.2097778,64 85,67.8414194 85,72.5806452" id="Fill-370" fill="#5C3230"></path>
                <path d="M43,72.5806452 C43,77.3189677 41.2097778,78 39,78 C36.7911111,78 35,77.3189677 35,72.5806452 C35,67.8414194 36.7911111,64 39,64 C41.2097778,64 43,67.8414194 43,72.5806452" id="Fill-371" fill="#5C3230"></path>
                <path d="M93.9995193,85 C90.6858928,85 88,84.5516502 88,84.0004286 C88,83.4474925 90.6858928,83 93.9995193,83 C97.3131459,83 100,83.4474925 100,84.0004286 C100,84.5516502 97.3131459,85 93.9995193,85" id="Fill-372" fill="#F1B6B2"></path>
                <path d="M30.9995193,86 C27.6868541,86 25,85.5516502 25,85.0004286 C25,84.4483498 27.6868541,84 30.9995193,84 C34.3141072,84 37,84.4483498 37,85.0004286 C37,85.5516502 34.3141072,86 30.9995193,86" id="Fill-373" fill="#F1B6B2"></path>
                <path d="M60.4889069,31.0664814 C60.4889069,31.0664814 108.982754,58.7038284 119,57.1508753 C119,57.1508753 118.995352,18.95587 91.9350289,12.4347715 C64.8747057,5.913673 12.555602,23.1806102 7.16305877,32.9296524 C1.7705155,42.6786946 1.9164609,49.9301561 2.03730742,58.6479332 C2.15815393,67.3666419 60.4889069,31.0664814 60.4889069,31.0664814" id="Fill-374" fill="#2D2E2C"></path>
                <path d="M62.999536,91 C60.2385151,91 58,88.8171002 58,86.1247925 C58,84.2924737 59.037587,84 60.5716937,84 C61.2909513,84 62.1187935,84.0639181 62.999536,84.0639181 C63.8812065,84.0639181 64.7090487,84 65.4283063,84 C66.962413,84 68,84.2924737 68,86.1247925 C68,88.8171002 65.7614849,91 62.999536,91" id="Fill-375" fill="#F4C4B6"></path>
                <path d="M20,135 C20,135 23.257564,166.177826 24.4247964,168.707678 C25.5911074,171.237529 41.2718192,169.273086 41.2718192,169.273086 L44.2373448,159.200408 L72.0804888,159.200408 L74.998109,169.107669 C74.998109,169.107669 90.876891,169.786159 91.9916117,168.396469 C93.1054112,167.007715 96,136.128013 96,136.128013 L20,135" id="Fill-376" fill="#809A3D"></path>
                <path d="M75,167.591168 L93,166 C93,166 92.4296769,169.591027 90.8899927,170.739902 C89.3512496,171.889685 78.0144306,172.684361 76.094531,171.151317 L75,167.591168" id="Fill-377" fill="#2D2E2C"></path>
                <path d="M42,167.591168 L24,166 C24,166 24.569382,169.591027 26.1090662,170.739902 C27.6487504,171.889685 38.9855694,172.684361 40.9045279,171.151317 L42,167.591168" id="Fill-378" fill="#2D2E2C"></path>
                <polyline id="Fill-379" fill="#7C492B" points="124.831198 125 102 109.880836 105.168802 105 128 120.119164 124.831198 125"></polyline>
                <polyline id="Fill-380" fill="#7C492B" points="107 109.607205 129.975431 70.5537824 147.157947 66 150 80.6608678 122.942838 120"></polyline>
                <path d="M112.118722,128.359285 C111.222406,129.918823 109.22207,130.462847 107.651178,129.571019 C106.081223,128.68012 105.534826,126.692803 106.431141,125.131406 L111.881077,115.641199 C112.778328,114.080732 114.777729,113.537637 116.34862,114.428536 C117.919512,115.319434 118.464973,117.307681 117.568657,118.870008 L112.118722,128.359285" id="Fill-381" fill="#7C492B"></path>
                <path d="M114.700661,29.4604524 C113.096854,25.7401633 110.729594,21.5278596 107.276453,17.4737687 C98.6913143,21.5452355 88.7265871,23.1246208 78.7109012,23.2425946 C82.9432466,27.7566916 83.4676571,33.0691693 83.4676571,33.0691693 L38.8695963,33.8556611 C38.8695963,33.8556611 39.8239124,24.8558173 48.6582846,20.0134056 C33.7153632,16.906763 22.7990995,12.683485 22.7990995,12.683485 C27.9598183,9.8356531 30.8412968,7.24480282 35.4692663,5.18254818 C38.354451,3.89672555 41.1803383,2.84959404 43.9460017,2 C7.43183167,10.5654443 4,43 4,43 L118,40.9880443 C118,40.9880443 117.508944,35.979189 114.700661,29.4604524" id="Fill-382" fill="#809A3D"></path>
                <path d="M43,2.34873394 C47.3043386,1.18479124 52.0701507,0.403271975 57.3560361,0.121925038 C67.0881814,-0.394919705 75.207001,0.762770839 82,3" id="Fill-384" fill="#8BA043"></path>
                <path d="M22,13.1255036 C22,13.1255036 32.9838007,17.4749254 48.0191715,20.6743594 C50.9427158,19.0336723 54.7230003,17.8554292 59.6117332,17.6246782 C69.2092743,17.1716526 74.8950832,20.3296456 78.2577185,24 C88.3353697,23.8785025 98.3617469,22.2519431 107,18.0588669 C105.844939,16.6715351 104.566821,15.3039819 103.156322,13.9778698 C99.0348333,10.6701241 92.1063316,5.94208222 82.986104,2.71156754 C76.0697215,0.689434883 67.8034373,-0.356950485 57.8945238,0.110202659 C52.5126293,0.364499733 47.6602542,1.07088049 43.2777345,2.12291691 C40.4949604,2.99788721 37.6515898,4.07629517 34.748555,5.40052364 C30.091953,7.52437513 27.1926473,10.1926107 22,13.1255036" id="Fill-385" fill="#8BA043"></path>
            </g>
        </g>
    </g>
</svg>