<?xml version="1.0" encoding="UTF-8"?>
<svg width="178px" height="200px" viewBox="0 0 178 200" version="1.1" xmlns="http://www.w3.org/2000/svg" xmlns:xlink="http://www.w3.org/1999/xlink">
    <!-- Generator: Sketch 46.2 (44496) - http://www.bohemiancoding.com/sketch -->
    <title>Artboard</title>
    <desc>Created with Sketch.</desc>
    <defs></defs>
    <g id="Page-1" stroke="none" stroke-width="1" fill="none" fill-rule="evenodd">
        <g id="Artboard">
            <g id="Group" transform="translate(16.000000, 14.000000)">
                <path d="M93.3383406,94.8645131 L71.0091844,93 L48.6809456,94.8645131 C48.6809456,94.8645131 8.62774634,114.696235 12.2290752,125.548448 C15.830404,136.40157 28.9759424,130.297542 30.9569026,129.279294 C32.9369453,128.262866 32.5763537,168.791685 38.1586427,169.979186 C43.7409318,171.165777 51.3041811,171.504283 51.8446098,169.979186 C52.384121,168.452269 55.2661016,157.937652 55.6266932,157.429893 C55.9863673,156.921224 69.4915798,157.429893 69.4915798,157.429893 C69.4915798,157.429893 82.9967923,156.921224 83.3564664,157.429893 C83.7170581,157.937652 86.5981211,168.452269 87.1376323,169.979186 C87.678061,171.504283 95.2413103,171.165777 100.823599,169.979186 C106.405888,168.791685 106.046214,128.262866 108.026257,129.279294 C110.007217,130.297542 123.151838,136.40157 126.753167,125.548448 C130.355413,114.696235 93.3383406,94.8645131 93.3383406,94.8645131" id="Fill-250" fill="#FCE2CD"></path>
                <path d="M130,53.3348696 C130,82.7921538 104.256497,98 72.5,98 C40.7435028,98 15,82.7921538 15,53.3348696 C15,23.8794215 40.7435028,0 72.5,0 C104.256497,0 130,23.8794215 130,53.3348696" id="Fill-251" fill="#FCE2CD"></path>
                <path d="M48.7080932,94 L31,128.629002 L33.1790204,147.428649 L105.774227,148 L108,128.629002 L94.9790466,94 L84.3186223,94 C84.3186223,94 75.8390519,112.641244 71.2555003,113.556871 C66.6719487,114.472497 56.8173127,94 56.8173127,94 L48.7080932,94" id="Fill-252" fill="#B94236"></path>
                <path d="M84.830181,161.177067 L104.543275,160.610875 C104.543275,160.610875 105.843039,149.933739 105.999749,148.024427 C106.156458,146.115114 33,147.460044 33,147.460044 C33,147.460044 34.3808845,160.179448 34.7173483,161.811997 C35.054734,163.44364 53.7049709,162.919959 53.7049709,162.919959 L55.5937776,156.870034 L83.4529838,156.870034 L84.830181,161.177067" id="Fill-253" fill="#7F95B7"></path>
                <path d="M86,169.276945 C86,169.276945 95.2944174,171.894847 102,168 C102,168 101.845263,169.557277 100.488765,170.418138 C99.1313412,171.279 88.2978921,173.299818 86.4373407,170.772416 L86,169.276945" id="Fill-254" fill="#2D2E2C"></path>
                <path d="M102,167.298137 C101.981227,167.294587 100.760107,167.000887 99.2693333,167 C98.1924267,167.001775 96.9687467,167.149068 95.9387733,167.717835 C95.4250667,168.002662 94.96,168.401065 94.6152533,168.937888 C94.2705067,169.473824 94.0512,170.142857 94,170.94055 L94.8516267,171 C94.8951467,170.333629 95.0692267,169.830524 95.3252267,169.430346 C95.7083733,168.834073 96.2980267,168.449867 97.0062933,168.209406 C97.7111467,167.969831 98.5201067,167.886424 99.2693333,167.887311 C99.9605333,167.887311 100.601387,167.956522 101.064747,168.026619 C101.296853,168.061224 101.48544,168.09583 101.614293,168.121562 L101.76192,168.152618 L101.808853,168.163265 L102,167.298137" id="Fill-255" fill="#2D2E2C"></path>
                <path d="M96.9998531,170.993711 C97.0028378,170.901468 96.9700054,169.86478 95.9760787,168.873166 C94.983147,167.8826 93.1087147,166.998953 89.5767431,167.000001 C88.538045,167.000001 87.3530934,167.076521 86,167.249477 L86.1203855,168.290357 C87.4386566,168.121594 88.5838114,168.048219 89.5767431,168.048219 C92.9634562,168.049267 94.552346,168.893082 95.2915727,169.634172 C95.6646683,170.00629 95.8377846,170.361635 95.9243428,170.619497 C95.9671245,170.74738 95.9870229,170.851153 95.9969721,170.918239 L96.0049315,170.98847 L96.0049315,171 L96.188992,170.993711 L96.0049315,170.993711 L96.0049315,171 L96.188992,170.993711 L96.0049315,170.993711 L96.9998531,170.993711" id="Fill-256" fill="#2D2E2C"></path>
                <path d="M52,169.27609 C52,169.27609 42.7055826,171.895607 36,168 C36,168 36.1547371,169.556477 37.5112347,170.41861 C38.8686588,171.27964 49.7021079,173.299747 51.5626593,170.771853 L52,169.27609" id="Fill-257" fill="#2D2E2C"></path>
                <path d="M36.1911467,168.162378 L36.23808,168.15173 C36.46848,168.100266 37.5197867,167.886424 38.7306667,167.887311 C39.72992,167.88465 40.8341333,168.037267 41.6593067,168.499556 C42.0731733,168.730257 42.41792,169.031056 42.6747733,169.430346 C42.9307733,169.829636 43.1048533,170.333629 43.1483733,171 L44,170.94055 C43.9488,170.142857 43.7294933,169.473824 43.3847467,168.937001 C42.8650667,168.129547 42.08512,167.644188 41.25824,167.365572 C40.4279467,167.085182 39.5387733,167 38.7306667,167 C37.2398933,167 36.0187733,167.2937 36,167.298137 L36.1911467,168.162378" id="Fill-258" fill="#2D2E2C"></path>
                <path d="M42.995071,170.993709 L42.8120054,170.993709 L42.995071,171 L42.995071,170.993709 L42.8120054,170.993709 L42.995071,171 C42.9990506,170.981127 43.0139745,170.284928 43.7800639,169.563565 C44.5471483,168.842202 46.1420072,168.048493 49.4222628,168.048493 C50.4151943,168.048493 51.5603488,168.120839 52.8796145,168.289647 L53,167.248494 C51.6459121,167.075492 50.4619557,167.000001 49.4222628,167.000001 C45.891287,166.998952 44.0168552,167.881783 43.0229288,168.872609 C42.0290023,169.864483 41.9971649,170.901442 42.0001496,170.993709 L42.995071,170.993709" id="Fill-259" fill="#2D2E2C"></path>
                <path d="M72.6860883,46.0401931 L127.251458,72.1316428 C127.251458,72.1316428 139.469684,56.2234867 128.280439,40.1773932 C117.091194,24.1312998 16.6976014,36.6484191 16.6976014,36.6484191 C16.6976014,36.6484191 11.2219548,59.9931568 19.9388902,73 L72.6860883,46.0401931" id="Fill-260" fill="#1F1915"></path>
                <path d="M96,73.1935484 C96,78.2703226 94.2088889,79 92,79 C89.7902222,79 88,78.2703226 88,73.1935484 C88,68.1158065 89.7902222,64 92,64 C94.2088889,64 96,68.1158065 96,73.1935484" id="Fill-261" fill="#5C3230"></path>
                <path d="M53,73.1935484 C53,78.2703226 51.2088889,79 49,79 C46.7902222,79 45,78.2703226 45,73.1935484 C45,68.1158065 46.7902222,64 49,64 C51.2088889,64 53,68.1158065 53,73.1935484" id="Fill-262" fill="#5C3230"></path>
                <path d="M122.845455,54.1296018 C122.845455,54.1296018 140.788182,59.1737415 142,49 C142,49 141.393636,74.8264463 122,67.78287" id="Fill-263" fill="#1F1915"></path>
                <path d="M22.1545455,43.1296018 C22.1545455,43.1296018 4.21181818,48.1737415 3,38 C3,38 3.60545455,63.8264463 23,56.78287" id="Fill-264" fill="#1F1915"></path>
                <path d="M19.1545455,57.1296018 C19.1545455,57.1296018 1.21181818,62.1737415 0,52 C0,52 0.605454545,77.8264463 20,70.78287" id="Fill-265" fill="#1F1915"></path>
                <path d="M119.845455,42.1296018 C119.845455,42.1296018 137.788182,47.1746807 139,37 C139,37 138.393636,62.8264463 119,55.78287" id="Fill-266" fill="#1F1915"></path>
                <path d="M103.999519,85 C100.686854,85 98,84.3274754 98,83.5006429 C98,82.6712387 100.686854,82 103.999519,82 C107.313146,82 110,82.6712387 110,83.5006429 C110,84.3274754 107.313146,85 103.999519,85" id="Fill-267" fill="#F1B6B2"></path>
                <path d="M42.0004807,86 C38.6868541,86 36,85.3274754 36,84.5006429 C36,83.6725246 38.6868541,83 42.0004807,83 C45.3141072,83 48,83.6725246 48,84.5006429 C48,85.3274754 45.3141072,86 42.0004807,86" id="Fill-268" fill="#F1B6B2"></path>
                <path d="M72.4991648,90 C70.0144766,90 68,87.8171002 68,85.1247925 C68,83.2924737 68.9337416,83 70.3143096,83 C70.9615813,83 71.7065702,83.0639181 72.4991648,83.0639181 C73.2925947,83.0639181 74.0375835,83 74.6848552,83 C76.0654232,83 77,83.2924737 77,85.1247925 C77,87.8171002 74.9855234,90 72.4991648,90" id="Fill-269" fill="#F4C4B6"></path>
                <path d="M123.847575,49.956835 C123.087792,56.5746678 100.384824,62 71.4417616,62 C42.4996139,62 19.4802978,56.5964818 19.0359482,49.956835 C17.9067885,33.0655008 43.5446581,34.5070449 72.4877201,34.5070449 C101.430782,34.5070449 126.179038,29.6570578 123.847575,49.956835" id="Fill-270" fill="#F1AC44"></path>
                <path d="M13,45 C13,45 90.0164167,25.5267567 128,42.7301184 C128,42.7301184 118.374429,-2.53849073 67.235565,0.112008455 C18.1578255,2.65468135 13,45 13,45" id="Fill-271" fill="#F1AC44"></path>
                <path d="M14.0674821,40.1334341 C14.0674821,40.1334341 75.9285703,16.1517909 126.621663,38.5822106 L128,43.1803829 C128,43.1803829 94.7047689,25.5910544 13,45 L14.0674821,40.1334341" id="Fill-272" fill="#B94236"></path>
                <polyline id="Fill-273" fill="#F1AC44" points="109.662326 172 104 170.213526 130.338605 90 136 91.7873864 109.662326 172"></polyline>
                <path d="M31,13.474316 C31,13.474316 83.824864,32.3564354 116,16.9517321 C116,16.9517321 87.8162356,-9.99020952 43.5988033,6.15353398 C38.8740217,7.87796105 36.1311054,10.6939897 31,13.474316" id="Fill-274" fill="#F1B562"></path>
            </g>
        </g>
    </g>
</svg>